<svg width="19" height="13" viewBox="0 0 19 13" fill="none" xmlns="http://www.w3.org/2000/svg">
<g clip-path="url(#clip0_129_4)">
<path d="M0 1.08333C0 0.484114 0.606473 0 1.35714 0H17.6428C18.3935 0 19 0.484114 19 1.08333C19 1.68255 18.3935 2.16667 17.6428 2.16667H1.35714C0.606473 2.16667 0 1.68255 0 1.08333ZM0 6.5C0 5.9008 0.606473 5.41668 1.35714 5.41668H17.6428C18.3935 5.41668 19 5.9008 19 6.5C19 7.0992 18.3935 7.58332 17.6428 7.58332H1.35714C0.606473 7.58332 0 7.0992 0 6.5ZM19 11.9167C19 12.5159 18.3935 13 17.6428 13H1.35714C0.606473 13 0 12.5159 0 11.9167C0 11.3174 0.606473 10.8333 1.35714 10.8333H17.6428C18.3935 10.8333 19 11.3174 19 11.9167Z" fill="black"/>
</g>
<defs>
<clipPath id="clip0_129_4">
<rect width="19" height="13" fill="white"/>
</clipPath>
</defs>
</svg>
