<svg width="34" height="35" viewBox="0 0 34 35" fill="none" xmlns="http://www.w3.org/2000/svg">
<g clip-path="url(#clip0_120_26)">
<path d="M16.83 0C12.3664 0 8.08563 1.82057 4.92939 5.0612C1.77316 8.30182 0 12.6971 0 17.28C0 21.8629 1.77316 26.2582 4.92939 29.4988C8.08563 32.7394 12.3664 34.56 16.83 34.56C21.2936 34.56 25.5744 32.7394 28.7306 29.4988C31.8868 26.2582 33.66 21.8629 33.66 17.28C33.66 12.6971 31.8868 8.30182 28.7306 5.0612C25.5744 1.82057 21.2936 0 16.83 0ZM24.7782 19.8855L17.7372 26.6288C17.4874 26.865 17.1653 27 16.83 27C16.4947 27 16.166 26.865 15.9228 26.6288L8.88177 19.8855C8.58593 19.602 8.415 19.2037 8.415 18.7852C8.415 17.955 9.07242 17.28 9.88105 17.28H13.6744V10.8C13.6744 9.60525 14.6145 8.64 15.7781 8.64H17.8819C19.0455 8.64 19.9856 9.60525 19.9856 10.8V17.28H23.7789C24.5876 17.28 25.245 17.955 25.245 18.7852C25.245 19.2037 25.0741 19.602 24.7782 19.8855Z" fill="black"/>
</g>
<defs>
<clipPath id="clip0_120_26">
<rect width="33.66" height="34.56" fill="white"/>
</clipPath>
</defs>
</svg>
