<svg width="39" height="36" viewBox="0 0 39 36" fill="none" xmlns="http://www.w3.org/2000/svg">
<g clip-path="url(#clip0_122_34)">
<path d="M35.3438 18C35.3437 14.1212 33.6745 10.4013 30.7032 7.65856C27.7319 4.91584 23.702 3.375 19.5 3.375C15.298 3.375 11.2681 4.91584 8.29678 7.65856C5.3255 10.4013 3.65625 14.1212 3.65625 18C3.65625 21.8788 5.3255 25.5987 8.29678 28.3414C11.2681 31.0842 15.298 32.625 19.5 32.625C23.702 32.625 27.7319 31.0842 30.7032 28.3414C33.6745 25.5987 35.3438 21.8788 35.3438 18ZM0 18C0 13.2261 2.05446 8.64773 5.71142 5.27208C9.36838 1.89642 14.3283 0 19.5 0C24.6717 0 29.6316 1.89642 33.2886 5.27208C36.9455 8.64773 39 13.2261 39 18C39 22.7739 36.9455 27.3523 33.2886 30.7279C29.6316 34.1036 24.6717 36 19.5 36C14.3283 36 9.36838 34.1036 5.71142 30.7279C2.05446 27.3523 0 22.7739 0 18ZM13.5281 22.3664C14.6859 23.5195 16.6664 24.75 19.5 24.75C22.3336 24.75 24.3141 23.5195 25.4719 22.3664C26.1574 21.6844 27.3152 21.6352 28.0541 22.268C28.793 22.9008 28.8463 23.9695 28.1607 24.6516C26.485 26.325 23.5904 28.125 19.5076 28.125C15.4248 28.125 12.5227 26.332 10.8545 24.6516C10.1689 23.9695 10.2146 22.9008 10.9611 22.268C11.7076 21.6352 12.8578 21.6773 13.5434 22.3664H13.5281ZM16.575 16.0875L16.5598 16.0734C16.5445 16.0594 16.5293 16.0383 16.5064 16.0102C16.4607 15.9539 16.3846 15.8695 16.2932 15.7711C16.1027 15.5742 15.8361 15.307 15.5162 15.0469C14.8459 14.4984 14.0842 14.0625 13.4062 14.0625C12.7283 14.0625 11.9666 14.4984 11.2963 15.0469C10.9764 15.307 10.7098 15.5742 10.5193 15.7711C10.4279 15.8695 10.3518 15.9539 10.3061 16.0102C10.2832 16.0383 10.2604 16.0594 10.2527 16.0734L10.2375 16.0875C10.0775 16.2844 9.80332 16.3617 9.55957 16.2844C9.31582 16.207 9.14062 15.9961 9.14062 15.75C9.14062 14.4914 9.65098 13.2469 10.4051 12.3187C11.1516 11.4047 12.2256 10.6875 13.4062 10.6875C14.5869 10.6875 15.6609 11.4047 16.4074 12.3187C17.1615 13.2469 17.6719 14.4914 17.6719 15.75C17.6719 15.9891 17.5043 16.207 17.2529 16.2844C17.0016 16.3617 16.7273 16.2844 16.575 16.0875ZM28.7625 16.0875L28.7473 16.0734C28.732 16.0594 28.7168 16.0383 28.6939 16.0102C28.6482 15.9539 28.5721 15.8695 28.4807 15.7711C28.2902 15.5742 28.0236 15.307 27.7037 15.0469C27.0334 14.4984 26.2717 14.0625 25.5938 14.0625C24.9158 14.0625 24.1541 14.4984 23.4838 15.0469C23.1639 15.307 22.8973 15.5742 22.7068 15.7711C22.6154 15.8695 22.5393 15.9539 22.4936 16.0102C22.4707 16.0383 22.4479 16.0594 22.4402 16.0734L22.425 16.0875C22.265 16.2844 21.9908 16.3617 21.7471 16.2844C21.5033 16.207 21.3281 15.9961 21.3281 15.75C21.3281 14.4914 21.8385 13.2469 22.5926 12.3187C23.3391 11.4047 24.4131 10.6875 25.5938 10.6875C26.7744 10.6875 27.8484 11.4047 28.5949 12.3187C29.349 13.2469 29.8594 14.4914 29.8594 15.75C29.8594 15.9891 29.6918 16.207 29.4404 16.2844C29.1891 16.3617 28.9148 16.2844 28.7625 16.0875Z" fill="black"/>
</g>
<defs>
<clipPath id="clip0_122_34">
<rect width="39" height="36" fill="white"/>
</clipPath>
</defs>
</svg>
