<svg width="39" height="36" viewBox="0 0 39 36" fill="none" xmlns="http://www.w3.org/2000/svg">
<path d="M20.7188 5.14804C14.7316 5.14804 9.66621 9.28574 7.94473 14.9901C10.5041 13.6243 13.391 12.861 16.4531 12.861H23.1562C23.8266 12.861 24.375 13.4395 24.375 14.1465C24.375 14.8536 23.8266 15.432 23.1562 15.432H21.9375H16.4531C15.1887 15.432 13.9623 15.5847 12.7816 15.8659C10.8088 16.3399 8.97305 17.1835 7.34297 18.3324C2.91738 21.4417 0 26.7524 0 32.7863V34.0718C0 35.1403 0.815039 36 1.82812 36C2.84121 36 3.65625 35.1403 3.65625 34.0718V32.7863C3.65625 28.8735 5.23301 25.3545 7.7543 22.8879C9.2625 28.9539 14.4955 33.429 20.7188 33.429H20.7949C30.8572 33.3728 39 22.912 39 10.0169C39 6.59423 38.4287 3.34031 37.3928 0.407766C37.1947 -0.146605 36.4254 -0.122501 36.1588 0.399732C34.7268 3.22783 31.8932 5.14804 28.6406 5.14804H20.7188Z" fill="black"/>
</svg>
