<svg width="15" height="18" viewBox="0 0 15 18" fill="none" xmlns="http://www.w3.org/2000/svg">
<g clip-path="url(#clip0_125_62)">
<path d="M0 2.25C0 1.00898 0.84082 0 1.875 0H10.3125C11.3467 0 12.1875 1.00898 12.1875 2.25V4.5C12.1875 5.74102 11.3467 6.75 10.3125 6.75H1.875C0.84082 6.75 0 5.74102 0 4.5V2.25ZM4.6875 12.375C4.6875 11.7527 5.10645 11.25 5.625 11.25V10.6875C5.625 9.13359 6.67383 7.875 7.96875 7.875H12.1875C12.7061 7.875 13.125 7.37227 13.125 6.75V5.625V2.44336C14.2178 2.90742 15 4.15547 15 5.625V6.75C15 8.61328 13.7402 10.125 12.1875 10.125H7.96875C7.71094 10.125 7.5 10.3781 7.5 10.6875V11.25C8.01855 11.25 8.4375 11.7527 8.4375 12.375V16.875C8.4375 17.4973 8.01855 18 7.5 18H5.625C5.10645 18 4.6875 17.4973 4.6875 16.875V12.375Z" fill="black"/>
</g>
<defs>
<clipPath id="clip0_125_62">
<rect width="15" height="18" fill="white"/>
</clipPath>
</defs>
</svg>
