<svg width="39" height="36" viewBox="0 0 39 36" fill="none" xmlns="http://www.w3.org/2000/svg">
<path d="M0 3.85714V7.71429C0 9.13661 0.968229 10.2857 2.16667 10.2857H3.25H6.5V3.85714C6.5 1.72768 5.04427 0 3.25 0C1.45573 0 0 1.72768 0 3.85714ZM7.58333 0C8.26042 1.07679 8.66667 2.41071 8.66667 3.85714V28.2857C8.66667 31.1223 10.6099 33.4286 13 33.4286C15.3901 33.4286 17.3333 31.1223 17.3333 28.2857V27.8598C17.3333 25.2563 19.1141 23.1429 21.3078 23.1429H32.5V7.71429C32.5 3.45536 29.5885 0 26 0H7.58333ZM31.4167 36C35.6078 36 39 31.9741 39 27C39 26.2929 38.5125 25.7143 37.9167 25.7143H21.3078C20.3125 25.7143 19.5 26.6705 19.5 27.8598V28.2857C19.5 32.5446 16.5885 36 13 36H24.9167H31.4167Z" fill="black"/>
</svg>
