<svg width="91" height="9" viewBox="0 0 91 9" fill="none" xmlns="http://www.w3.org/2000/svg">
<path d="M9 4.52738C9 2.02637 6.98589 0 4.5 0C2.01411 0 0 2.02637 0 4.52738C0 6.78706 1.64558 8.66008 3.79687 9V5.83613H2.65373V4.52738H3.79687V3.5299C3.79687 2.39531 4.46825 1.7686 5.49653 1.7686C5.98899 1.7686 6.50395 1.85696 6.50395 1.85696V2.97055H5.93637C5.3775 2.97055 5.20312 3.31959 5.20312 3.67759V4.52738H6.45115L6.25155 5.83613H5.20312V9C7.35442 8.66008 9 6.78706 9 4.52738Z" fill="black"/>
<path d="M45.501 2.19251C44.224 2.19251 43.194 3.22275 43.194 4.5C43.194 5.77725 44.224 6.80749 45.501 6.80749C46.778 6.80749 47.808 5.77725 47.808 4.5C47.808 3.22275 46.778 2.19251 45.501 2.19251ZM45.501 6.00017C44.6758 6.00017 44.0012 5.3274 44.0012 4.5C44.0012 3.6726 44.6738 2.99983 45.501 2.99983C46.3282 2.99983 47.0008 3.6726 47.0008 4.5C47.0008 5.3274 46.3262 6.00017 45.501 6.00017ZM48.4404 2.09813C48.4404 2.39736 48.1995 2.63634 47.9023 2.63634C47.6032 2.63634 47.3643 2.39535 47.3643 2.09813C47.3643 1.8009 47.6052 1.55991 47.9023 1.55991C48.1995 1.55991 48.4404 1.8009 48.4404 2.09813ZM49.9684 2.64437C49.9342 1.92341 49.7696 1.28478 49.2416 0.758619C48.7155 0.232456 48.077 0.0677786 47.3562 0.03163C46.6133 -0.0105433 44.3867 -0.0105433 43.6438 0.03163C42.925 0.0657704 42.2865 0.230447 41.7584 0.75661C41.2304 1.28277 41.0678 1.9214 41.0316 2.64236C40.9895 3.38542 40.9895 5.61257 41.0316 6.35563C41.0658 7.07659 41.2304 7.71522 41.7584 8.24138C42.2865 8.76754 42.923 8.93222 43.6438 8.96837C44.3867 9.01054 46.6133 9.01054 47.3562 8.96837C48.077 8.93423 48.7155 8.76955 49.2416 8.24138C49.7676 7.71522 49.9322 7.07659 49.9684 6.35563C50.0105 5.61257 50.0105 3.38743 49.9684 2.64437ZM49.0086 7.15291C48.852 7.54652 48.5489 7.84977 48.1533 8.00842C47.561 8.24339 46.1555 8.18917 45.501 8.18917C44.8465 8.18917 43.439 8.24138 42.8487 8.00842C42.4552 7.85178 42.152 7.54853 41.9934 7.15291C41.7584 6.56047 41.8127 5.15469 41.8127 4.5C41.8127 3.84531 41.7605 2.43752 41.9934 1.84709C42.15 1.45348 42.4532 1.15023 42.8487 0.991576C43.441 0.75661 44.8465 0.810833 45.501 0.810833C46.1555 0.810833 47.563 0.758619 48.1533 0.991576C48.5468 1.14822 48.85 1.45147 49.0086 1.84709C49.2436 2.43953 49.1893 3.84531 49.1893 4.5C49.1893 5.15469 49.2436 6.56248 49.0086 7.15291Z" fill="black"/>
<path d="M90.0749 2.24296C90.0806 2.34139 90.0806 2.43985 90.0806 2.53828C90.0806 5.54061 88.2246 9 84.8325 9C83.7874 9 82.8166 8.62733 82 7.98048C82.1485 8.00156 82.2912 8.00859 82.4454 8.00859C83.3077 8.00859 84.1015 7.65001 84.7354 7.03829C83.9245 7.01719 83.2449 6.36329 83.0108 5.46328C83.125 5.48436 83.2392 5.49843 83.3591 5.49843C83.5248 5.49843 83.6904 5.47029 83.8446 5.4211C82.9994 5.21014 82.3655 4.29609 82.3655 3.19218V3.16407C82.611 3.33282 82.8966 3.43829 83.1992 3.45233C82.7024 3.04451 82.3769 2.34843 82.3769 1.56092C82.3769 1.13905 82.4682 0.752336 82.6282 0.414833C83.5362 1.79296 84.901 2.69294 86.4315 2.7914C86.4029 2.62265 86.3858 2.44688 86.3858 2.2711C86.3858 1.01952 87.2081 0 88.2303 0C88.7614 0 89.2411 0.274218 89.578 0.717187C89.9949 0.618754 90.3947 0.428901 90.7487 0.168751C90.6117 0.696107 90.3204 1.13908 89.9378 1.42031C90.309 1.37111 90.6688 1.24452 91 1.06876C90.7488 1.51874 90.4347 1.9195 90.0749 2.24296Z" fill="black"/>
</svg>
