<svg width="98" height="23" viewBox="0 0 98 23" fill="none" xmlns="http://www.w3.org/2000/svg">
<path d="M2.828 16.238L4.326 11.786L0.714 9.364H5.138L6.72 4.59L8.33 9.364H12.726L9.114 11.786L10.64 16.238L6.72 13.396L2.828 16.238Z" fill="black"/>
<path d="M86.828 16.238L88.326 11.786L84.714 9.364H89.138L90.72 4.59L92.33 9.364H96.726L93.114 11.786L94.64 16.238L90.72 13.396L86.828 16.238Z" fill="black"/>
<path d="M65.828 16.238L67.326 11.786L63.714 9.364H68.138L69.72 4.59L71.33 9.364H75.726L72.114 11.786L73.64 16.238L69.72 13.396L65.828 16.238Z" fill="black"/>
<path d="M44.828 16.238L46.326 11.786L42.714 9.364H47.138L48.72 4.59L50.33 9.364H54.726L51.114 11.786L52.64 16.238L48.72 13.396L44.828 16.238Z" fill="black"/>
<path d="M23.828 16.238L25.326 11.786L21.714 9.364H26.138L27.72 4.59L29.33 9.364H33.726L30.114 11.786L31.64 16.238L27.72 13.396L23.828 16.238Z" fill="black"/>
</svg>
