<svg width="39" height="36" viewBox="0 0 39 36" fill="none" xmlns="http://www.w3.org/2000/svg">
<path d="M24.6645 0.223484C21.7547 -0.65225 18.7154 1.12332 17.8852 4.1924L17.451 5.79925C17.1691 6.84371 16.6588 7.80782 15.9656 8.61124L12.058 13.1426C11.3801 13.9299 11.4334 15.1511 12.1799 15.8662C12.9264 16.5812 14.0842 16.525 14.7621 15.7376L18.6697 11.2063C19.7438 9.961 20.5283 8.47466 20.9625 6.85977L21.3967 5.25292C21.6709 4.23257 22.684 3.63804 23.659 3.92727C24.634 4.21651 25.19 5.28506 24.9158 6.31345L24.4816 7.9203C24.0475 9.51911 23.3619 11.0296 22.4555 12.3793C22.0594 12.9658 22.0137 13.7371 22.326 14.3798C22.6383 15.0226 23.2629 15.4243 23.9484 15.4243H34.125C34.7953 15.4243 35.3438 16.0028 35.3438 16.7098C35.3438 17.2561 35.0162 17.7301 34.5516 17.9149C33.9879 18.1399 33.5613 18.638 33.4166 19.2566C33.2719 19.8753 33.4242 20.526 33.8203 21.0001C34.0107 21.225 34.125 21.5223 34.125 21.8517C34.125 22.4784 33.6984 23.0006 33.1348 23.1131C32.5102 23.2416 31.9846 23.6996 31.7637 24.3262C31.5428 24.9529 31.6418 25.668 32.0379 26.1982C32.1979 26.4151 32.2969 26.6883 32.2969 26.9936C32.2969 27.5319 31.977 28.0059 31.5199 28.1907C30.6439 28.5522 30.1717 29.5485 30.423 30.5046C30.4535 30.609 30.4688 30.7295 30.4688 30.85C30.4688 31.5571 29.9203 32.1355 29.25 32.1355H21.8232C20.8635 32.1355 19.9189 31.8383 19.1191 31.2759L14.4193 27.9738C13.5814 27.3792 12.4465 27.6203 11.8828 28.5121C11.3191 29.4039 11.5477 30.5929 12.3932 31.1875L17.093 34.4896C18.4945 35.4778 20.1398 36 21.8232 36H29.25C31.8932 36 34.0412 33.7825 34.125 31.0188C35.2371 30.0788 35.9531 28.6326 35.9531 27.0016C35.9531 26.6401 35.915 26.2946 35.8541 25.9572C37.0271 25.0172 37.7812 23.5308 37.7812 21.8597C37.7812 21.3375 37.7051 20.8313 37.568 20.3573C38.4516 19.4173 39 18.1318 39 16.7098C39 13.8737 36.8215 11.5678 34.125 11.5678H27.0943C27.4523 10.7323 27.757 9.86458 27.9932 8.98082L28.4273 7.37397C29.2576 4.30488 27.5742 1.09922 24.6645 0.223484ZM2.4375 12.8533C1.08926 12.8533 0 14.0022 0 15.4243V33.421C0 34.8431 1.08926 35.992 2.4375 35.992H7.3125C8.66074 35.992 9.75 34.8431 9.75 33.421V15.4243C9.75 14.0022 8.66074 12.8533 7.3125 12.8533H2.4375Z" fill="black"/>
</svg>
